<svg xmlns="http://www.w3.org/2000/svg" width="16" height="16" viewBox="0 0 256 256"><defs><style>.cls-1{fill:#afb1b3;}.cls-2{fill:none;stroke:#c75450;stroke-miterlimit:10;stroke-width:20px;}</style></defs><title>ClearUniform</title><g id="Clear_All" data-name="Clear All"><polygon class="cls-1" points="70 152 46 152 46 180.72 70 156.72 70 152"/><polygon class="cls-1" points="107 176.28 107 181 136 181 136 164.28 127.5 155.78 107 176.28"/><polygon class="cls-1" points="74 102.28 74 115 86.72 115 74 102.28"/><polygon class="cls-1" points="140 181 152.72 181 140 168.28 140 181"/><polygon class="cls-1" points="38 96.16 29.91 96.16 42.22 74.84 54.53 96.16 46 96.16 46 115 70 115 70 98.28 35.23 63.51 19 63.51 19 207.72 38 188.72 38 96.16"/><polygon class="cls-1" points="140 185 140 209 158.56 209 158.56 200.56 179.72 212.78 158.56 225 158.56 217 66.28 217 47.28 236 191.49 236 191.49 219.77 156.72 185 140 185"/><polygon class="cls-1" points="136 84 140 84 140 86.72 163.2 63.51 91.8 63.51 127.5 99.22 136 90.72 136 84"/><polygon class="cls-1" points="191.49 91.8 168.28 115 172 115 172 119 164.28 119 155.78 127.5 191.49 163.2 191.49 91.8"/><rect class="cls-1" x="107" y="185" width="29" height="24"/><polygon class="cls-1" points="74 152 74 152.72 74.72 152 74 152"/><polygon class="cls-1" points="103 180.28 102.28 181 103 181 103 180.28"/><polygon class="cls-1" points="74.28 209 103 209 103 185 98.28 185 74.28 209"/><polygon class="cls-1" points="90.72 119 74 119 74 148 78.72 148 99.22 127.5 90.72 119"/><rect class="cls-1" x="46" y="119" width="24" height="29"/><polygon class="cls-1" points="69.28 41 83.28 55 171.72 55 185.72 41 69.28 41"/><polygon class="cls-1" points="200 83.28 200 171.72 214 185.72 214 69.28 200 83.28"/><polygon class="cls-1" points="63.51 18 63.51 32 194.72 32 208.72 18 63.51 18"/><polygon class="cls-1" points="222 61.28 222 190.49 236 190.49 236 47.28 222 61.28"/></g><g id="Cross"><line class="cls-2" x1="9" y1="247" x2="247" y2="9"/><line class="cls-2" x1="9" y1="9" x2="247" y2="247"/></g></svg>