<svg xmlns="http://www.w3.org/2000/svg" width="16" height="16" viewBox="0 0 256 256"><defs><style>.cls-1{fill:#afb1b3;}.cls-2{fill:none;stroke:#c75450;stroke-miterlimit:10;stroke-width:20px;}</style></defs><title>ClearUniform</title><g id="Clear"><polygon class="cls-1" points="39 128 93 128 93 133.72 99.22 127.5 28 56.28 28 198.72 39 187.72 39 128"/><polygon class="cls-1" points="187.72 216 163 216 163 191.28 155 183.28 155 216 101 216 101 182.28 93 190.28 93 216 67.28 216 56.28 227 198.72 227 187.72 216"/><polygon class="cls-1" points="56.28 28 101 72.72 101 52 155 52 155 71.72 198.72 28 56.28 28"/><polygon class="cls-1" points="163 134.72 163 120.28 155.78 127.5 163 134.72"/><polygon class="cls-1" points="183.28 100 217 100 217 188.72 227 198.72 227 56.28 183.28 100"/></g><g id="Cross"><line class="cls-2" x1="9" y1="247" x2="247" y2="9"/><line class="cls-2" x1="9" y1="9" x2="247" y2="247"/></g></svg>