<svg xmlns="http://www.w3.org/2000/svg" width="16" height="16" viewBox="0 0 256 256"><defs><style>.cls-1{fill:#afb1b3;}.cls-2{fill:#59a869;}</style></defs><title>ClearUniform</title><g id="Export_Small" data-name="Export Small"><rect class="cls-1" x="59.66" y="168.16" width="27.69" height="27.69"/><path class="cls-1" d="M77.66,130.09h-18v33.46H87.35V144.39A127.7,127.7,0,0,0,76.68,160C76.68,149.92,76.78,139.88,77.66,130.09Z"/><polygon class="cls-1" points="151.22 133.31 151.22 130.09 130.04 130.09 130.04 163.55 163.5 163.55 163.5 130.09 156.8 130.09 151.22 133.31"/><path class="cls-1" d="M130,125.47h21.18V99.84A83.25,83.25,0,0,0,130,106.29Z"/><polygon class="cls-1" points="227.51 28 210.38 28 227.51 37.89 227.51 28"/><path class="cls-1" d="M168.11,123.56v1.91H205v4.62H168.11v33.46H205v4.61H168.11v27.69h21.41v-9.74l24.42,14.1-24.42,14.1v-9.23H50.43V65.67H41.09L55.3,41.06,69.51,65.67H59.66V87.4H87.35V51.64H92V81.11a72,72,0,0,1,7.7-11.78c6.38-7.66,16.6-17.88,26.82-24.27a148.87,148.87,0,0,1,24.73-12.5V28H28.51V227h199V89.26Z"/><rect class="cls-1" x="130.04" y="168.16" width="33.46" height="27.69"/><path class="cls-1" d="M92,163.55h33.45V130.09H99.65c-2.64,2.8-5.23,5.71-7.68,8.62Z"/><rect class="cls-1" x="91.97" y="168.16" width="33.46" height="27.69"/><path class="cls-1" d="M104.13,125.47h21.29V108.61c-.93.51-1.86,1-2.77,1.58C117.05,113.59,110.54,119.1,104.13,125.47Z"/><path class="cls-1" d="M86.81,92H59.66v33.45H78.13a129.43,129.43,0,0,1,2.38-14A125.78,125.78,0,0,1,86.81,92Z"/></g><g id="Arrow"><polygon class="cls-2" points="243 63.58 164.63 18.33 164.63 108.82 243 63.58"/><path class="cls-2" d="M164.8,42.51a106.45,106.45,0,0,0-77.61,84.64c15.16-27.25,44.22-42.5,77.61-42.5Z"/></g></svg>