<svg width="16" height="16" viewBox="0 0 16 16" fill="none" xmlns="http://www.w3.org/2000/svg">
<path fill-rule="evenodd" clip-rule="evenodd" d="M8 15C11.866 15 15 11.866 15 8C15 4.13401 11.866 1 8 1C4.13401 1 1 4.13401 1 8C1 11.866 4.13401 15 8 15ZM8.17355 4H5V12H6.52727V9.44H7.72727L9.21488 12H11L9.30413 9.14286C10.1868 8.76571 10.7917 7.95429 10.7917 6.66286V6.64C10.7917 5.88571 10.5835 5.25714 10.1967 4.81143C9.7405 4.28571 9.0562 4 8.17355 4ZM8.07432 7.88572H6.52722V5.58857H8.04457C8.78837 5.58857 9.24457 5.97714 9.24457 6.73143V6.75429C9.24457 7.42857 8.81812 7.88572 8.07432 7.88572Z" fill="#40B6E0" fill-opacity="0.6"/>
</svg>
