<svg width="16" height="16" viewBox="0 0 16 16" fill="none" xmlns="http://www.w3.org/2000/svg">
<path fill-rule="evenodd" clip-rule="evenodd" d="M15 8C15 11.866 11.866 15 8 15C4.134 15 1 11.866 1 8C1 4.134 4.134 1 8 1C11.866 1 15 4.134 15 8Z" fill="#F98B9E" fill-opacity="0.6"/>
<path fill-rule="evenodd" clip-rule="evenodd" d="M10 9.19913V4.9867L9 4.99365V3.99365H11V9.19913C11 9.9999 11.5 10.001 12.0327 10.001H12.4871V10.9999H11.6937C11.1178 10.9999 10.627 10.8611 10.3762 10.5835C10.1254 10.3058 10 9.84438 10 9.19913Z" fill="#231F20" fill-opacity="0.7"/>
<path fill-rule="evenodd" clip-rule="evenodd" d="M9.02114 7.85147C9.02042 7.10247 8.78736 6.00015 7.60082 6.00015C7.06773 6.00015 6.78646 6.42178 6.72759 6.654H6.60986C6.45941 6.24991 6.12117 6.00015 5.66468 6.00015C5.01712 6.00015 4.83725 6.654 4.83725 6.654H4.71759V6.00015H4V11.0001H4.99163V7.68765C4.99163 7.18741 5.16576 6.99985 5.53125 6.99985C5.89674 6.99985 6.09312 7.17959 6.09312 7.68765C6.09312 8.87849 6.09312 10.9999 6.09312 10.9999H6.93037V7.68741C6.93037 7.19522 7.0625 6.99985 7.45703 6.99985C7.85156 6.99985 8.00378 7.19131 8.00378 7.68765V11.0001H9.02114V7.85147Z" fill="#231F20" fill-opacity="0.7"/>
</svg>
