<svg width="16" height="16" viewBox="0 0 16 16" fill="none" xmlns="http://www.w3.org/2000/svg">
<path fill-rule="evenodd" clip-rule="evenodd" d="M13.5313 4.5C12.4392 3.00077 10.4687 2 8.21923 2C4.78445 2 2 4.33338 2 7.21177C2 9.43496 3.66112 11.333 6 12.0819V10.2429C5.04438 9.59097 4.44405 8.64863 4.44405 7.6006C4.44405 5.63283 6.56047 4.03763 9.1712 4.03763C10.1367 4.03763 11.0086 4.18688 11.7241 4.5H13.5313Z" fill="#9AA7B0" fill-opacity="0.8"/>
<path d="M7 14H9V11H9.5L10.9224 14H13L11.4441 10.8629C12.2547 10.3871 13 9.88857 13 8.5C13 6 11.609 5.5 10 5.5H7V14ZM9 9.5V7.5H10C10.5963 7.5 11 7.78 11 8.5C11 9.15571 10.6056 9.5 10 9.5H9Z" fill="#40B6E0" fill-opacity="0.7"/>
</svg>
