<?xml version="1.0" encoding="UTF-8"?>
<svg xmlns="http://www.w3.org/2000/svg" width="16" height="16" viewBox="0 0 16 16" version="1.1">
<defs>
<linearGradient id="linear0" gradientUnits="userSpaceOnUse" x1="0" y1="0" x2="1" y2="1" gradientTransform="matrix(15.9375,0,0,13.773437,0.0195312,0.0859375)">
<stop offset="0" style="stop-color:rgb(79.607843%,80.784314%,81.568627%);stop-opacity:1;"/>
<stop offset="1" style="stop-color:rgb(51.764706%,51.372549%,54.509804%);stop-opacity:1;"/>
</linearGradient>
<linearGradient id="linear1" gradientUnits="userSpaceOnUse" x1="0" y1="0" x2="1" y2="1" gradientTransform="matrix(8.796875,0,0,11.582031,6.585938,4.363281)">
<stop offset="0" style="stop-color:rgb(15.294118%,42.745098%,76.470588%);stop-opacity:1;"/>
<stop offset="1" style="stop-color:rgb(8.627451%,36.078431%,66.666667%);stop-opacity:1;"/>
</linearGradient>
</defs>
<g id="surface1">
<path style=" stroke:none;fill-rule:evenodd;fill:url(#linear0);" d="M 7.988281 13.859375 C 3.585938 13.859375 0.0195312 10.777344 0.0195312 6.972656 C 0.0195312 3.167969 3.585938 0.0859375 7.988281 0.0859375 C 12.386719 0.0859375 15.957031 3.167969 15.957031 6.972656 C 15.957031 10.777344 12.386719 13.859375 7.988281 13.859375 Z M 9.207031 2.777344 C 5.863281 2.777344 3.152344 4.886719 3.152344 7.484375 C 3.152344 10.085938 5.863281 12.195312 9.207031 12.195312 C 12.550781 12.195312 15.019531 10.753906 15.019531 7.484375 C 15.019531 4.21875 12.550781 2.777344 9.207031 2.777344 Z M 9.207031 2.777344 "/>
<path style=" stroke:none;fill-rule:evenodd;fill:url(#linear1);" d="M 12.15625 10.753906 C 12.15625 10.753906 12.636719 10.941406 12.917969 11.121094 C 13.015625 11.1875 13.183594 11.3125 13.304688 11.480469 C 13.421875 11.640625 13.480469 11.808594 13.480469 11.808594 L 15.382812 15.941406 L 12.308594 15.945312 L 10.871094 12.464844 C 10.871094 12.464844 10.578125 11.8125 10.398438 11.621094 C 10.246094 11.464844 10.183594 11.40625 10.03125 11.40625 C 9.929688 11.40625 9.304688 11.40625 9.304688 11.40625 L 9.304688 15.941406 L 6.585938 15.945312 L 6.585938 4.363281 L 12.042969 4.363281 C 12.042969 4.363281 14.53125 4.417969 14.53125 7.472656 C 14.53125 10.523438 12.15625 10.753906 12.15625 10.753906 Z M 10.972656 6.875 L 9.328125 6.871094 L 9.324219 8.84375 L 10.972656 8.839844 C 10.972656 8.839844 11.734375 8.839844 11.734375 7.839844 C 11.734375 6.820312 10.972656 6.875 10.972656 6.875 Z M 10.972656 6.875 "/>
</g>
</svg>
