<svg width="16" height="16" viewBox="0 0 16 16" fill="none" xmlns="http://www.w3.org/2000/svg">
<path fill-rule="evenodd" clip-rule="evenodd" d="M12.917 8H8V9H12.6586C12.7723 8.67837 12.8593 8.34415 12.917 8ZM8 12.917V10H12.1973C11.319 11.5183 9.79458 12.616 8 12.917ZM12.6586 5C11.9423 2.97354 10.1684 1.44674 8 1.08296V5H12.6586ZM12.917 6C12.9716 6.32521 13 6.65929 13 7H8V6H12.917ZM7 1C6.65929 1 6.32521 1.0284 6 1.08296V12.917C6.32521 12.9716 6.65929 13 7 13V1ZM1 7C1 5.223 1.7725 3.62643 3 2.52779V11.4722C1.7725 10.3736 1 8.777 1 7ZM5 1.34141C4.65069 1.46488 4.31622 1.61977 4 1.80269V12.1973C4.31622 12.3802 4.65069 12.5351 5 12.6586V1.34141Z" fill="#59A869"/>
<path fill-rule="evenodd" clip-rule="evenodd" d="M14 12.5C14 13.8807 12.8807 15 11.5 15C10.1193 15 9 13.8807 9 12.5C9 11.6821 9.39278 10.9559 10 10.4998V12L10.0597 12.0796C10.0208 12.213 10 12.354 10 12.5C10 13.3284 10.6716 14 11.5 14C12.3284 14 13 13.3284 13 12.5H14Z" fill="#59A869"/>
</svg>
