<svg width="16" height="16" viewBox="0 0 16 16" fill="none" xmlns="http://www.w3.org/2000/svg">
<g clip-path="url(#clip0_9010_13654)">
<path fill-rule="evenodd" clip-rule="evenodd" d="M12.1823 10.0321C12.1823 10.0321 12.6665 10.1735 12.9478 10.3113C13.0454 10.3591 13.2143 10.4545 13.3361 10.5797C13.4555 10.7024 13.5136 10.8267 13.5136 10.8267L15.4218 13.9408L12.3376 13.9421L10.8954 11.3207C10.8954 11.3207 10.6001 10.8295 10.4183 10.6871C10.2667 10.5683 10.2021 10.526 10.0522 10.526C9.9479 10.526 9.31943 10.526 9.31943 10.526L9.32001 13.9402L6.59082 13.9414V5.21997H12.0714C12.0714 5.21997 14.5676 5.26355 14.5676 7.56225C14.5676 9.86095 12.1823 10.0321 12.1823 10.0321ZM10.9952 7.11176L9.34302 7.11073L9.3422 8.59368L10.9952 8.59317C10.9952 8.59317 11.7607 8.59087 11.7607 7.8388C11.7607 7.07162 10.9952 7.11176 10.9952 7.11176Z" fill="#CED0D6"/>
<path fill-rule="evenodd" clip-rule="evenodd" d="M15.1869 9.46658C15.7076 8.7783 16 8.00425 16 7.18593C16 4.32181 12.4183 2 8 2C3.58174 2 0 4.32181 0 7.18593C0 9.57103 2.4839 11.5801 5.86632 12.1853V10.5289C4.22553 9.89395 3.14385 8.80704 3.14385 7.57283C3.14385 5.61481 5.86626 4.02752 9.22454 4.02752C12.5828 4.02752 15.0611 5.11348 15.0611 7.57283C15.0611 8.33226 14.825 8.96067 14.3996 9.46658H15.1869Z" fill="#CED0D6"/>
</g>
<defs>
<clipPath id="clip0_9010_13654">
<rect width="16" height="16" fill="white"/>
</clipPath>
</defs>
</svg>
