<svg width="16" height="16" viewBox="0 0 16 16" fill="none" xmlns="http://www.w3.org/2000/svg">
<g clip-path="url(#clip0_8944_12958)">
<path d="M2 5.5C2 5.22386 2.22386 5 2.5 5H13.5C13.7761 5 14 5.22386 14 5.5C14 5.77614 13.7761 6 13.5 6H2.5C2.22386 6 2 5.77614 2 5.5Z" fill="#CED0D6"/>
<path d="M2 8.5C2 8.22386 2.22386 8 2.5 8H6.5C6.77614 8 7 8.22386 7 8.5C7 8.77614 6.77614 9 6.5 9H2.5C2.22386 9 2 8.77614 2 8.5Z" fill="#CED0D6"/>
<path d="M2 2.5C2 2.22386 2.22386 2 2.5 2H13.5C13.7761 2 14 2.22386 14 2.5C14 2.77614 13.7761 3 13.5 3H2.5C2.22386 3 2 2.77614 2 2.5Z" fill="#CED0D6"/>
<path fill-rule="evenodd" clip-rule="evenodd" d="M9 9.50215C9 8.32441 10.2951 7.60608 11.2942 8.22967L15.2962 10.7275C16.2372 11.3149 16.2372 12.6851 15.2962 13.2725L11.2942 15.7703C10.2951 16.3939 9 15.6756 9 14.4978V9.50215ZM10.7647 9.07799C10.4317 8.87013 10 9.10957 10 9.50215V14.4978C10 14.8904 10.4317 15.1298 10.7647 14.922L14.7667 12.4241C15.0804 12.2284 15.0804 11.7716 14.7667 11.5758L10.7647 9.07799Z" fill="#57965C"/>
<path d="M10 9.50226C10 9.10968 10.4317 8.87024 10.7647 9.0781L14.7667 11.5759C15.0804 11.7717 15.0804 12.2285 14.7667 12.4243L10.7647 14.9221C10.4317 15.13 10 14.8905 10 14.4979V9.50226Z" fill="#253627"/>
</g>
<defs>
<clipPath id="clip0_8944_12958">
<rect width="16" height="16" fill="white"/>
</clipPath>
</defs>
</svg>
