<svg width="20" height="20" viewBox="0 0 20 20" fill="none" xmlns="http://www.w3.org/2000/svg">
<path d="M0 10C1.04286 13.1286 4.26084 15.8221 7.83925 16.6289C7.69449 16.1299 7.72582 15.5907 7.93325 15.1091C6.78814 14.8187 5.67536 14.3015 4.68472 13.6124C3.26421 12.6242 2.17694 11.3406 1.60352 10C2.17694 8.65944 3.26421 7.37579 4.68472 6.38761C6.26688 5.28697 8.16062 4.625 10 4.625C11.8394 4.625 13.7331 5.28697 15.3153 6.38761C16.7358 7.37579 17.8231 8.65944 18.3965 10C18.191 10.4804 17.9202 10.9542 17.591 11.409L18.6624 12.4805C19.2508 11.7082 19.7097 10.871 20 10C18.75 6.25 14.375 3.125 10 3.125C5.625 3.125 1.25 6.25 0 10Z" fill="#CED0D6"/>
<path d="M6 10C6 11.8479 7.253 13.4031 8.95571 13.8623L10.3411 12.4769C10.2296 12.4921 10.1157 12.5 10 12.5C8.61929 12.5 7.5 11.3807 7.5 10C7.5 8.61929 8.61929 7.5 10 7.5C11.3807 7.5 12.5 8.61929 12.5 10C12.5 10.2963 12.4485 10.5806 12.3538 10.8443C12.8575 10.6938 13.4035 10.7234 13.8906 10.9331C13.9621 10.6337 14 10.3213 14 10C14 7.79086 12.2091 6 10 6C7.79086 6 6 7.79086 6 10Z" fill="#CED0D6"/>
<path d="M13.5303 19.5303C13.2374 19.8232 12.7626 19.8232 12.4697 19.5303L9.46967 16.5303C9.17678 16.2374 9.17678 15.7626 9.46967 15.4697L12.4697 12.4697C12.7626 12.1768 13.2374 12.1768 13.5303 12.4697C13.8232 12.7626 13.8232 13.2374 13.5303 13.5303L11.0607 16L13.5303 18.4697C13.8232 18.7626 13.8232 19.2374 13.5303 19.5303Z" fill="#CED0D6"/>
<path d="M15.4697 12.4697C15.7626 12.1768 16.2374 12.1768 16.5303 12.4697L19.5303 15.4697C19.8232 15.7626 19.8232 16.2374 19.5303 16.5303L16.5303 19.5303C16.2374 19.8232 15.7626 19.8232 15.4697 19.5303C15.1768 19.2374 15.1768 18.7626 15.4697 18.4697L17.9393 16L15.4697 13.5303C15.1768 13.2374 15.1768 12.7626 15.4697 12.4697Z" fill="#CED0D6"/>
</svg>
