<svg width="16" height="16" viewBox="0 0 16 16" fill="none" xmlns="http://www.w3.org/2000/svg">
<path d="M14.5584 10.4371C15.2088 9.69947 15.7097 8.8708 16 8C15 5 11.5 2.5 8 2.5C4.5 2.5 1 5 0 8C0.860647 10.5819 3.57307 12.7935 6.54355 13.3598C6.46192 13.0279 6.49504 12.6737 6.6429 12.3601C5.58001 12.1439 4.5427 11.6865 3.63356 11.0541C2.44503 10.2273 1.53283 9.14177 1.06602 8C1.53283 6.85823 2.44503 5.77271 3.63356 4.94591C4.92792 4.04548 6.48208 3.5 8 3.5C9.51792 3.5 11.0721 4.04548 12.3664 4.94591C13.555 5.77271 14.4672 6.85823 14.934 8C14.688 8.60164 14.3184 9.18767 13.8498 9.72845L14.5584 10.4371Z" fill="#6C707E"/>
<path fill-rule="evenodd" clip-rule="evenodd" d="M7.881 10.9977L9.43934 9.43934C9.81338 9.0653 10.3358 8.9301 10.8171 9.03373C10.9354 8.71147 11 8.36327 11 8C11 6.34315 9.65685 5 8 5C6.34315 5 5 6.34315 5 8C5 9.617 6.27931 10.9352 7.881 10.9977ZM8 10C9.10457 10 10 9.10457 10 8C10 6.89543 9.10457 6 8 6C6.89543 6 6 6.89543 6 8C6 9.10457 6.89543 10 8 10Z" fill="#6C707E"/>
<path fill-rule="evenodd" clip-rule="evenodd" d="M10.8536 10.1464C11.0488 10.3417 11.0488 10.6583 10.8536 10.8536L8.70711 13L10.8536 15.1464C11.0488 15.3417 11.0488 15.6583 10.8536 15.8536C10.6583 16.0488 10.3417 16.0488 10.1464 15.8536L7.64645 13.3536C7.45118 13.1583 7.45118 12.8417 7.64645 12.6464L10.1464 10.1464C10.3417 9.95118 10.6583 9.95118 10.8536 10.1464ZM12.1464 10.1464C12.3417 9.95118 12.6583 9.95118 12.8536 10.1464L15.3536 12.6464C15.5488 12.8417 15.5488 13.1583 15.3536 13.3536L12.8536 15.8536C12.6583 16.0488 12.3417 16.0488 12.1464 15.8536C11.9512 15.6583 11.9512 15.3417 12.1464 15.1464L14.2929 13L12.1464 10.8536C11.9512 10.6583 11.9512 10.3417 12.1464 10.1464Z" fill="#6C707E"/>
</svg>
