<svg width="20" height="20" viewBox="0 0 20 20" fill="none" xmlns="http://www.w3.org/2000/svg">
<path fill-rule="evenodd" clip-rule="evenodd" d="M1 5.64992C1 5.25473 1.23273 4.89661 1.59386 4.7361L9.59386 1.18055C9.85243 1.06563 10.1476 1.06563 10.4061 1.18055L18.4061 4.7361C18.7673 4.89661 19 5.25473 19 5.64992V14.3502C19 14.7454 18.7673 15.1035 18.4061 15.264L10.4061 18.8195C10.1476 18.9345 9.85243 18.9345 9.59386 18.8195L1.59386 15.264C1.23273 15.1035 1 14.7454 1 14.3502V5.64992ZM9.24998 17.0252V9.48744L2.5 6.48745V14.0252L9.24998 17.0252ZM3.76998 5.41042L10 2.64152L16.23 5.41041L9.99998 8.1793L3.76998 5.41042ZM17.5 6.48743L10.75 9.48744V17.0252L17.5 14.0252V6.48743Z" fill="#CED0D6"/>
</svg>
