<svg width="16" height="16" viewBox="0 0 16 16" fill="none" xmlns="http://www.w3.org/2000/svg">
<rect x="14" y="15" width="2" height="1" rx="0.5" fill="#6C707E"/>
<rect x="11" y="15" width="2" height="1" rx="0.5" fill="#6C707E"/>
<rect x="14" y="8" width="2" height="1" rx="0.5" fill="#6C707E"/>
<rect x="11" y="8" width="2" height="1" rx="0.5" fill="#6C707E"/>
<path fill-rule="evenodd" clip-rule="evenodd" d="M13 9.5C13 9.22386 13.2239 9 13.5 9C13.7761 9 14 9.22386 14 9.5V14.5C14 14.7761 13.7761 15 13.5 15C13.2239 15 13 14.7761 13 14.5V9.5Z" fill="#6C707E"/>
<path fill-rule="evenodd" clip-rule="evenodd" d="M10.7008 4.2C10.7008 4.27899 10.6974 4.35728 10.6907 4.4347C11.1618 4.69509 11.5665 5.06092 11.8729 5.50036L13.9791 4.36035C14.222 4.2289 14.5254 4.31922 14.6569 4.56207C14.7883 4.80492 14.698 5.10835 14.4551 5.23979L12.3218 6.39447C12.3866 6.58927 12.4348 6.79167 12.4646 7H11.5C11.4833 7 11.4667 7.00027 11.4502 7.00081C11.2188 5.85929 10.2098 5 9 5H7C5.61929 5 4.5 6.11929 4.5 7.5V10C4.5 11.933 6.067 13.5 8 13.5C9.27316 13.5 10.3876 12.8202 11 11.8038V13.3542C10.2039 14.0667 9.15253 14.5 8 14.5C6.36122 14.5 4.92703 13.624 4.14017 12.3147L2.02989 13.5331C1.79075 13.6711 1.48495 13.5892 1.34688 13.3501C1.20881 13.1109 1.29075 12.8051 1.52989 12.667L3.72243 11.4012C3.57807 10.9602 3.5 10.4892 3.5 10V9.50006H1C0.723858 9.50006 0.5 9.2762 0.5 9.00006C0.5 8.72392 0.723858 8.50006 1 8.50006H3.5V7.5C3.5 7.11364 3.5626 6.74191 3.67822 6.39438L1.5423 5.2399C1.29938 5.1086 1.20889 4.80523 1.34019 4.5623C1.4715 4.31937 1.77487 4.22888 2.0178 4.36019L4.12714 5.5003C4.43389 5.06042 4.83909 4.6943 5.3108 4.43387C5.30416 4.35672 5.30078 4.27871 5.30078 4.2C5.30078 2.70883 6.50961 1.5 8.00078 1.5C9.49195 1.5 10.7008 2.70883 10.7008 4.2ZM7 4C6.76231 4 6.53015 4.02369 6.30577 4.06885C6.37272 3.19125 7.10603 2.5 8.00078 2.5C8.89564 2.5 9.62902 3.19142 9.69582 4.06917C9.47094 4.02381 9.23825 4 9 4H7Z" fill="#208A3C"/>
<path fill-rule="evenodd" clip-rule="evenodd" d="M6.30577 4.06885C6.53015 4.02369 6.76231 4 7 4H9C9.23825 4 9.47094 4.02381 9.69582 4.06917C9.62902 3.19142 8.89564 2.5 8.00078 2.5C7.10603 2.5 6.37272 3.19125 6.30577 4.06885ZM4.5 7.5C4.5 6.11929 5.61929 5 7 5H9C10.2098 5 11.2188 5.85929 11.4502 7.00081C10.6448 7.02711 10 7.68825 10 8.5C10 9.15311 10.4174 9.70873 11 9.91465V11.8038C10.3876 12.8202 9.27316 13.5 8 13.5C6.067 13.5 4.5 11.933 4.5 10V7.5Z" fill="#F2FCF3"/>
</svg>
