<svg width="16" height="16" viewBox="0 0 16 16" fill="none" xmlns="http://www.w3.org/2000/svg">
<path d="M2.07026 8.8399H3.28576L4.44926 12.9999H3.18176L2.07026 8.8399ZM0.614258 3.8999H2.17426C2.67259 3.8999 3.07776 3.9974 3.38976 4.1924C3.70609 4.38307 3.93792 4.6734 4.08526 5.0634C4.23693 5.4534 4.31276 5.9474 4.31276 6.5454C4.31276 7.15207 4.23476 7.65257 4.07876 8.0469C3.92709 8.4369 3.69093 8.7294 3.37026 8.9244C3.04959 9.11507 2.63359 9.2104 2.12226 9.2104H1.80376V12.9999H0.614258V3.8999ZM2.17426 8.0729C2.41259 8.0729 2.59676 8.02307 2.72676 7.9234C2.86109 7.82374 2.95426 7.66557 3.00626 7.4489C3.06259 7.23224 3.09076 6.93107 3.09076 6.5454C3.09076 6.1684 3.06259 5.87157 3.00626 5.6549C2.95426 5.43824 2.86109 5.28224 2.72676 5.1869C2.59676 5.08724 2.41259 5.0374 2.17426 5.0374H1.80376V8.0729H2.17426Z" fill="#548AF7"/>
<path d="M5.42578 3.8999H7.18078L7.92178 9.6849L7.95428 10.5494H8.09728L8.11678 9.6849L8.79928 3.8999H10.5868V12.9999H9.49478V6.0124L9.57278 5.1479L9.42978 5.1349L9.38428 6.0059L8.48078 12.9999H7.54478L6.62178 6.0449L6.57628 5.1739L6.43328 5.1869L6.51128 6.0514V12.9999H5.42578V3.8999Z" fill="#548AF7"/>
<path d="M11.9004 3.8999H13.6944C14.1624 3.8999 14.5437 4.03207 14.8384 4.2964C15.1331 4.56074 15.3497 4.97024 15.4884 5.5249C15.6271 6.07524 15.6964 6.7924 15.6964 7.6764V9.2234C15.6964 10.1074 15.6271 10.8267 15.4884 11.3814C15.3497 11.9317 15.1331 12.3391 14.8384 12.6034C14.5437 12.8677 14.1624 12.9999 13.6944 12.9999H11.9004V3.8999ZM13.6944 11.9144C13.8764 11.9144 14.0259 11.8212 14.1429 11.6349C14.2599 11.4442 14.3444 11.1517 14.3964 10.7574C14.4527 10.3631 14.4809 9.85174 14.4809 9.2234V7.6764C14.4809 7.04807 14.4527 6.53674 14.3964 6.1424C14.3444 5.74807 14.2599 5.45774 14.1429 5.2714C14.0259 5.08074 13.8764 4.9854 13.6944 4.9854H13.0899V11.9144H13.6944Z" fill="#548AF7"/>
</svg>
