<svg width="20" height="20" viewBox="0 0 20 20" fill="none" xmlns="http://www.w3.org/2000/svg">
<g clip-path="url(#clip0_9010_13649)">
<path fill-rule="evenodd" clip-rule="evenodd" d="M15.2286 13.0403C15.2286 13.0403 15.8339 13.217 16.1855 13.3892C16.3075 13.449 16.5186 13.5683 16.6709 13.7248C16.8201 13.8782 16.8928 14.0335 16.8928 14.0335L19.278 17.9262L15.4228 17.9278L13.62 14.651C13.62 14.651 13.2508 14.0371 13.0237 13.859C12.8342 13.7106 12.7534 13.6577 12.566 13.6577C12.4356 13.6577 11.65 13.6577 11.65 13.6577L11.6507 17.9255L8.23926 17.9269V7.02515H15.09C15.09 7.02515 18.2102 7.07962 18.2102 9.95299C18.2102 12.8264 15.2286 13.0403 15.2286 13.0403ZM13.7448 9.38988L11.6795 9.38859L11.6785 11.2423L13.7448 11.2416C13.7448 11.2416 14.7017 11.2388 14.7017 10.2987C14.7017 9.3397 13.7448 9.38988 13.7448 9.38988Z" fill="#CED0D6"/>
<path fill-rule="evenodd" clip-rule="evenodd" d="M18.9836 12.3332C19.6345 11.4729 20 10.5053 20 9.48241C20 5.90226 15.5229 3 10 3C4.47717 3 0 5.90226 0 9.48241C0 12.4638 3.10488 14.9751 7.3329 15.7317V13.6611C5.28191 12.8674 3.92981 11.5088 3.92981 9.96603C3.92981 7.51851 7.33283 5.5344 11.5307 5.5344C15.7285 5.5344 18.8264 6.89185 18.8264 9.96603C18.8264 10.9153 18.5312 11.7008 17.9996 12.3332H18.9836Z" fill="#CED0D6"/>
</g>
<defs>
<clipPath id="clip0_9010_13649">
<rect width="20" height="20" fill="white"/>
</clipPath>
</defs>
</svg>
