<svg width="16" height="16" viewBox="0 0 16 16" fill="none" xmlns="http://www.w3.org/2000/svg">
<g clip-path="url(#clip0_9019_13253)">
<path d="M8.09379 5H13C13.5523 5 14 5.44772 14 6V8C14.3506 8 14.6872 8.06015 15 8.17071V6C15 4.89543 14.1046 4 13 4L8.5 4L6.73559 2.28327C6.5489 2.10163 6.29871 2 6.03823 2H2.75C1.7835 2 1 2.83574 1 3.86667V12.1333C1 13.1643 1.7835 14 2.75 14H8V13H2.75C2.3956 13 2 12.6738 2 12.1333V3.86667C2 3.32624 2.3956 3 2.75 3H6.03823L8.09379 5Z" fill="#6C707E"/>
<path fill-rule="evenodd" clip-rule="evenodd" d="M12.6281 9.14645C12.799 8.95118 13.076 8.95118 13.2469 9.14645L15.8719 12.1464C16.0427 12.3417 16.0427 12.6583 15.8719 12.8536L13.2469 15.8536C13.076 16.0488 12.799 16.0488 12.6281 15.8536C12.4573 15.6583 12.4573 15.3417 12.6281 15.1464L14.5063 13H9.4375C9.19588 13 9 12.7761 9 12.5C9 12.2238 9.19588 12 9.4375 12H14.5063L12.6281 9.85355C12.4573 9.65829 12.4573 9.34171 12.6281 9.14645Z" fill="#6C707E"/>
</g>
<defs>
<clipPath id="clip0_9019_13253">
<rect width="16" height="16" fill="white"/>
</clipPath>
</defs>
</svg>
