<svg width="16" height="16" viewBox="0 0 16 16" fill="none" xmlns="http://www.w3.org/2000/svg">
<path fill-rule="evenodd" clip-rule="evenodd" d="M12.6281 9.14645C12.799 8.95118 13.076 8.95118 13.2469 9.14645L15.8719 12.1464C16.0427 12.3417 16.0427 12.6583 15.8719 12.8536L13.2469 15.8536C13.076 16.0488 12.799 16.0488 12.6281 15.8536C12.4573 15.6583 12.4573 15.3417 12.6281 15.1464L14.5063 13H9.4375C9.19588 13 9 12.7761 9 12.5C9 12.2238 9.19588 12 9.4375 12H14.5063L12.6281 9.85355C12.4573 9.65829 12.4573 9.34171 12.6281 9.14645Z" fill="#6C707E"/>
<path d="M2.63333 3L6.1217 3L8.04022 5H13C13.5523 5 14 5.44771 14 6V8.48859L15 9.63144V6C15 4.89543 14.1046 4 13 4L8.46667 4L6.84336 2.30775C6.65477 2.11115 6.39413 2 6.1217 2H2.63333C1.73127 2 1 2.83574 1 3.86667V12C1 13.1046 1.89537 14 2.99994 14H8V13H2.99994C2.44769 13 2 12.5523 2 12V3.86667C2 3.25841 2.40481 3 2.63333 3Z" fill="#6C707E"/>
</svg>
