<svg width="16" height="16" viewBox="0 0 16 16" fill="none" xmlns="http://www.w3.org/2000/svg">
<path fill-rule="evenodd" clip-rule="evenodd" d="M12.6281 9.14645C12.799 8.95118 13.076 8.95118 13.2469 9.14645L15.8719 12.1464C16.0427 12.3417 16.0427 12.6583 15.8719 12.8536L13.2469 15.8536C13.076 16.0488 12.799 16.0488 12.6281 15.8536C12.4573 15.6583 12.4573 15.3417 12.6281 15.1464L14.5063 13H9.4375C9.19588 13 9 12.7761 9 12.5C9 12.2238 9.19588 12 9.4375 12H14.5063L12.6281 9.85355C12.4573 9.65829 12.4573 9.34171 12.6281 9.14645Z" fill="#CED0D6"/>
<path d="M3.00021 3L6.12186 3L8.04039 5H13.0002C13.5525 5 14.0002 5.44773 14.0002 6.00002L14.0001 8.48845L15.0001 9.63129L15.0002 6.00004C15.0002 4.89545 14.1048 4 13.0002 4L8.46684 4L6.84352 2.30775C6.65492 2.11115 6.39429 2 6.12186 2H3.00021C1.89565 2 1.00022 2.8954 1.00019 3.99995L1 12C0.999973 13.1045 1.89542 14 3.00002 14H8L8.00017 13H3.00002C2.44772 13 1.99999 12.5523 2.00001 12L2.0002 3.99998C2.00022 3.4477 2.44793 3 3.00021 3Z" fill="#CED0D6"/>
</svg>
