<svg width="13" height="13" viewBox="0 0 13 13" fill="none" xmlns="http://www.w3.org/2000/svg">
<path fill-rule="evenodd" clip-rule="evenodd" d="M10.6048 3C9.67486 1.79641 8.05842 1 6.22 1C3.33708 1 1 2.95848 1 5.37441C1 7.12506 2.2272 8.63553 4.00002 9.33463V7.6413C3.4085 7.11899 3.05137 6.44132 3.05137 5.70077C3.05137 4.04915 4.82775 2.71025 7.01902 2.71025C7.75798 2.71025 8.43165 2.81442 9.00002 3.03207V3H10.6048Z" fill="#AFB1B3"/>
<path d="M5 11H6.94V8.88H7.8L9.21 11H11.44L9.77 8.56C10.64 8.19 11.21 7.48 11.21 6.4V6.38C11.21 5.69 11 5.16 10.59 4.75C10.12 4.28 9.38 4 8.31 4H5V11ZM6.94 7.36V5.67H8.22C8.86 5.67 9.27 5.95 9.27 6.51V6.53C9.27 7.04 8.88 7.36 8.23 7.36H6.94Z" fill="#AFB1B3"/>
</svg>
