<svg width="40" height="40" viewBox="0 0 40 40" fill="none" xmlns="http://www.w3.org/2000/svg">
<path fill-rule="evenodd" clip-rule="evenodd" d="M19.9434 29.2C10.0305 29.2 2 24.0086 2 17.6C2 11.1914 10.0305 6 19.9434 6C29.8474 6 37.8867 11.1914 37.8867 17.6C37.8867 24.0086 29.8474 29.2 19.9434 29.2ZM22.6876 10.5334C15.1585 10.5334 9.0542 14.0864 9.0542 18.4619C9.0542 22.844 15.1585 26.397 22.6876 26.397C30.2168 26.397 35.7757 23.9691 35.7757 18.4619C35.7757 12.9613 30.2168 10.5334 22.6876 10.5334Z" fill="url(#paint0_linear)"/>
<path fill-rule="evenodd" clip-rule="evenodd" d="M28.9931 24.3048C28.9931 24.3048 30.0276 24.6218 30.6331 24.9256C30.8434 25.0379 31.205 25.2492 31.4657 25.5332C31.718 25.804 31.8442 26.088 31.8442 26.088L35.94 33.0754L29.3211 33.082L26.2261 27.1975C26.2261 27.1975 25.5953 26.0946 25.2085 25.771C24.8805 25.5068 24.7459 25.4077 24.4179 25.4077C24.1992 25.4077 22.8536 25.4077 22.8536 25.4077V33.0754L17 33.082V13.5H28.7492C28.7492 13.5 34.1066 13.5925 34.1066 18.7571C34.1066 23.9151 28.9931 24.3048 28.9931 24.3048ZM26.4448 17.7466L22.904 17.74L22.8956 21.0752L26.4448 21.0686C26.4448 21.0686 28.0848 21.0686 28.0848 19.3779C28.0848 17.6542 26.4448 17.7466 26.4448 17.7466Z" fill="url(#paint1_linear)"/>
<defs>
<linearGradient id="paint0_linear" x1="2" y1="6" x2="23.1551" y2="38.7237" gradientUnits="userSpaceOnUse">
<stop offset="0" stop-color="#CBCED0"/>
<stop offset="1" stop-color="#84838B"/>
</linearGradient>
<linearGradient id="paint1_linear" x1="17" y1="13.5" x2="36.5712" y2="32.4295" gradientUnits="userSpaceOnUse">
<stop offset="0" stop-color="#276DC3"/>
<stop offset="1" stop-color="#165CAA"/>
</linearGradient>
</defs>
</svg>
