<svg width="40" height="40" viewBox="0 0 40 40" fill="none" xmlns="http://www.w3.org/2000/svg">
<path fill-rule="evenodd" clip-rule="evenodd" d="M19.9728 29.3874C10.0716 29.3874 2.04504 24.1843 2.04504 17.7659C2.04504 11.3475 10.0716 6.14441 19.9728 6.14441C29.874 6.14441 37.9006 11.3475 37.9006 17.7659C37.9006 24.1843 29.874 29.3874 19.9728 29.3874ZM22.717 10.688C15.1912 10.688 9.0903 14.2451 9.0903 18.6329C9.0903 23.0208 15.1912 26.5779 22.717 26.5779C30.2427 26.5779 35.7966 24.146 35.7966 18.6329C35.7966 13.1216 30.2427 10.688 22.717 10.688Z" fill="url(#paint0_linear)"/>
<path fill-rule="evenodd" clip-rule="evenodd" d="M29.3481 24.1444C29.3481 24.1444 30.4331 24.4613 31.0635 24.7701C31.2823 24.8772 31.6607 25.091 31.9337 25.3717C32.2011 25.6466 32.3315 25.9251 32.3315 25.9251L36.6077 32.9038L29.6961 32.9067L26.4641 27.0321C26.4641 27.0321 25.8023 25.9314 25.395 25.6123C25.0553 25.3461 24.9105 25.2513 24.5746 25.2513C24.3408 25.2513 22.9324 25.2513 22.9324 25.2513L22.9337 32.9025L16.8177 32.905V13.3607H29.0995C29.0995 13.3607 34.6934 13.4583 34.6934 18.6096C34.6934 23.761 29.3481 24.1444 29.3481 24.1444ZM26.6879 17.6001L22.9853 17.5978L22.9834 20.921L26.6879 20.9199C26.6879 20.9199 28.4033 20.9147 28.4033 19.2294C28.4033 17.5101 26.6879 17.6001 26.6879 17.6001Z" fill="url(#paint1_linear)"/>
<defs>
<linearGradient id="paint0_linear" x1="2.04504" y1="6.14441" x2="23.263" y2="38.876" gradientUnits="userSpaceOnUse">
<stop offset="0" stop-color="#CBCED0"/>
<stop offset="1" stop-color="#84838B"/>
</linearGradient>
<linearGradient id="paint1_linear" x1="16.8177" y1="13.3607" x2="36.3623" y2="33.1492" gradientUnits="userSpaceOnUse">
<stop offset="0" stop-color="#2E82E9"/>
<stop offset="1" stop-color="#1C7BE4"/>
</linearGradient>
</defs>
</svg>
