<svg width="16" height="16" viewBox="0 0 16 16" fill="none" xmlns="http://www.w3.org/2000/svg">
<path fill-rule="evenodd" clip-rule="evenodd" d="M1.01953 4.02081H3.01953V5H3.99988V11H2.99988V5.02081H1.01953V4.02081ZM6.01953 4.02081H4.01953V5.02081H6.01953V4.02081ZM1.01953 11.0208H3.01953V12.0208H1.01953V11.0208ZM6.01953 11.0208H4.01953V12.0208H6.01953V11.0208Z" fill="#6E6E6E"/>
<path fill-rule="evenodd" clip-rule="evenodd" d="M13.5777 8.88471V9.23057C13.5777 9.471 13.5367 9.69986 13.4792 9.92293H14.5714V10.9618H12.953C12.4325 11.6161 11.6509 11.9973 10.8242 12C9.99755 11.9973 9.21589 11.6161 8.69537 10.9618H7V9.92293H8.16915C8.10696 9.69748 8.07387 9.46473 8.07073 9.23057V8.88471H7V7.84586H8.07073V7.15414C8.07073 7.03521 8.09155 6.92271 8.10606 6.80764H7V5.76943H8.45561C8.72023 5.31579 9.10514 4.94745 9.56608 4.70679L8.59883 3.73479L9.32948 3L10.7163 4.39564C10.7529 4.39436 10.7485 4.38921 10.7851 4.38921C10.7977 4.38921 10.8482 4.39436 10.8608 4.395L12.242 3L12.9726 3.73479L12.0325 4.67979C12.5154 4.91976 12.9188 5.29856 13.1928 5.76943H14.5714V6.80764H13.543C13.5569 6.92271 13.5777 7.03521 13.5777 7.15414V7.84586H14.5714V8.88471H13.5777ZM9.65 6.85714V7.82142H11.9214V6.85714H9.65ZM9.65 8.78568V9.74996H11.9214V8.78568H9.65Z" fill="#59A869"/>
</svg>
